#tb 0: 1/22050
#media_type 0: audio
#codec_id 0: pcm_s16le
#sample_rate 0: 22050
#channel_layout_name 0: mono
0,          0,          0,      512,     1024, 0xf7e0f7d3
0,        512,        512,      512,     1024, 0xb2abfeba
0,       1024,       1024,      512,     1024, 0x672bfe34
0,       1536,       1536,      512,     1024, 0x28a0fd03
0,       2048,       2048,      512,     1024, 0x1175f9eb
0,       2560,       2560,      512,     1024, 0xced2f971
0,       3072,       3072,      512,     1024, 0x48c7006f
0,       3584,       3584,      512,     1024, 0x500f0068
0,       4096,       4096,      512,     1024, 0xbab9fb65
0,       4608,       4608,      512,     1024, 0xd60ff7e5
